<svg xmlns="http://www.w3.org/2000/svg" viewBox="0 0 200 240" role="img" aria-label="Tarcza ozdobna: złoty klucz na czerwieni">
<!-- Tarcza ozdobna (dekoracja) — nie jest herbem żadnej miejscowości. -->
<defs>
<linearGradient id="g6" x1="0" y1="0" x2="1" y2="1"><stop offset="0" stop-color="#F6DE8D"/><stop offset=".45" stop-color="#D4AF37"/><stop offset="1" stop-color="#8C6B12"/></linearGradient>
<linearGradient id="f6" x1="0" y1="0" x2="0" y2="1"><stop offset="0" stop-color="#E4283F"/><stop offset="1" stop-color="#A9102A"/></linearGradient>
<linearGradient id="s6" x1="0" y1="0" x2="0" y2="1"><stop offset="0" stop-color="#fff" stop-opacity=".26"/><stop offset="1" stop-color="#fff" stop-opacity="0"/></linearGradient>
<clipPath id="c6"><path d="M17,17 H183 V128 C183,183 146,211 100,224 C54,211 17,183 17,128 Z"/></clipPath>
</defs>
<path fill="url(#g6)" d="M8,8 H192 V128 C192,190 150,220 100,234 C50,220 8,190 8,128 Z"/>
<g clip-path="url(#c6)"><rect x="0" y="0" width="200" height="240" fill="url(#f6)"/><g fill="url(#g6)"><circle cx="100" cy="70" r="26"/><rect x="92" y="90" width="16" height="104"/><rect x="108" y="160" width="26" height="12"/><rect x="108" y="180" width="18" height="12"/></g><circle cx="100" cy="70" r="11" fill="#B3162F"/></g>
<path fill="url(#s6)" d="M17,17 H183 V92 C130,108 70,108 17,92 Z"/>
</svg>